<svg width="400" height="100" viewBox="0 0 400 100" fill="none" xmlns="http://www.w3.org/2000/svg">
  <defs>
    <linearGradient id="textGradient" x1="0%" y1="0%" x2="100%" y2="0%">
      <stop offset="0%" style="stop-color:#a855f7"/>
      <stop offset="100%" style="stop-color:#60a5fa"/>
    </linearGradient>
  </defs>
  <g transform="translate(10, 5) scale(0.185)">
    <path d="M209.281 0.57028C89.9093 0.903092 23.5578 101.441 0.34375 229.562C32.4594 186.719 134.922 200.078 149.911 252.398C177.864 200.352 250.739 199.841 290.639 220.139C266.973 201.998 254.873 169.869 250.895 137.119C250.683 135.378 250.508 133.625 250.341 131.872C212.95 101.934 197.633 57.2281 233.862 1.86403C225.43 0.973406 217.234 0.551531 209.277 0.573406L209.281 0.57028ZM526.922 0.57028C518.964 0.549967 510.769 0.971845 502.338 1.86247C540.453 60.1093 521.516 106.559 479.842 136.425C479.822 136.581 479.811 136.741 479.792 136.897C475.655 170.297 463.019 202.772 439.208 221.912C439.298 222.466 439.348 223.022 439.423 223.575C477.498 199.925 556.834 197.556 586.286 252.395C601.275 200.073 703.739 186.714 735.853 229.558C712.641 101.439 646.292 0.90153 526.922 0.57028ZM290.109 55.7343C280.766 76.4578 276.555 106.192 279.886 133.597C283.977 167.259 298.711 194.934 318.073 202.719L329.864 207.458L326.802 219.786C321.433 241.383 340.353 267.062 367.614 267.062C379.791 267.062 393.67 260.447 402.083 251.131C410.492 241.816 413.489 232.014 409.075 221.545L404.102 209.753L415.142 203.277C432.631 193.022 446.902 164.911 450.814 133.311C454.037 107.295 450.095 80.0609 440.508 60.9718C412.778 81.9453 395.017 119.998 378.434 146.691L364.727 168.753L353.005 145.573C339.723 119.314 317.134 78.6047 290.111 55.7359L290.109 55.7343ZM241.586 281.812C252.425 336.711 304.17 378.097 366.598 378.097C429.027 378.097 480.777 336.711 491.614 281.811C462.558 316.623 417.77 339.245 366.598 339.245C315.427 339.245 270.641 316.627 241.586 281.812ZM171.437 364.725C199.672 435.128 276.475 486.089 366.598 486.089C456.72 486.089 533.53 435.13 561.761 364.725C514.487 412.22 444.208 442.287 366.598 442.287C288.989 442.287 218.708 412.22 171.437 364.725Z" fill="#a855f7"/>
  </g>
  <text x="160" y="78" font-family="'Helvetica Neue', Helvetica, Arial, sans-serif" font-size="80" font-weight="bold" fill="url(#textGradient)">Seqra</text>
</svg>
